<svg width="81" height="83" viewBox="0 0 81 83" fill="none" xmlns="http://www.w3.org/2000/svg">
<path d="M80.5 42C80.5 64.3733 62.5856 82.5 40.5 82.5C18.4144 82.5 0.5 64.3733 0.5 42C0.5 19.6267 18.4144 1.5 40.5 1.5C62.5856 1.5 80.5 19.6267 80.5 42Z" fill="#ECE311" stroke="#B55151"/>
<path d="M44 27C45.7234 26.7846 41.4208 22.1604 40.5 21.0555C39.2287 19.53 37.3604 20 35.5 20C33.6667 20 31.8333 20 30 20C26.9959 20 29.0415 22.8799 27 23C19.8147 23.4227 23 39.1087 23 44.7778C23 48.6852 23 52.5926 23 56.5C23 61.4045 29.6571 56.8271 30 63C30.1278 65.3002 37.6907 65 39.5 65C42.0666 65 42 64.4304 42 62C42 58.7062 43 61.6239 43 61" stroke="black" stroke-width="3" stroke-linecap="round"/>
<path d="M27 62H28" stroke="black" stroke-width="3" stroke-linecap="round"/>
<path d="M29 64C27.1004 63.7625 24 63.1364 24 61" stroke="black" stroke-width="3" stroke-linecap="round"/>
<path d="M27 19C25.5509 19.1811 26 20.8774 26 22" stroke="black" stroke-width="3" stroke-linecap="round"/>
<path d="M25 21H24" stroke="black" stroke-width="3" stroke-linecap="round"/>
<path d="M41.9201 39.7452L42.0068 40.1373H42.4084H47.4312L43.2228 44.6338L43.0428 44.8261L43.0996 45.0833L44.6143 51.9387L40.8651 47.9329L40.5 47.5429L40.1349 47.9329L36.3857 51.9387L37.9004 45.0833L37.9573 44.8261L37.7772 44.6338L33.5688 40.1373H38.5916H38.9932L39.0799 39.7452L40.5 33.3176L41.9201 39.7452Z" fill="#ECE311" stroke="#B55151"/>
<path d="M71 41.7429C71 64.3865 56.897 82.7429 39.5 82.7429C22.103 82.7429 8 64.3865 8 41.7429C8 19.0992 22.103 0.742868 39.5 0.742868C56.897 0.742868 71 19.0992 71 41.7429Z" fill="black"/>
<ellipse cx="38.5" cy="42" rx="13.5" ry="40" fill="#D15454" fill-opacity="0.97"/>
<ellipse cx="39.5" cy="42" rx="4.5" ry="40" fill="#EC1111"/>
<path d="M44 43.5C44 55.3741 42.6569 65 41 65C39.3431 65 35 55.3741 35 43.5C35 31.6259 36.3431 22 38 22C39.6569 22 44 31.6259 44 43.5Z" fill="#D79026"/>
<ellipse cx="42" cy="34" rx="1" ry="5" fill="#ECE311"/>
<ellipse cx="42" cy="34" rx="1" ry="5" fill="#ECE311"/>
<ellipse cx="42" cy="34" rx="1" ry="5" fill="#ECE311"/>
<ellipse cx="41" cy="51" rx="1" ry="5" fill="black"/>
<ellipse cx="41" cy="51" rx="1" ry="5" fill="#ECE311"/>
<ellipse cx="41" cy="51" rx="1" ry="5" fill="#ECE311"/>
<ellipse cx="38" cy="44" rx="1" ry="5" fill="#ECE311"/>
<ellipse cx="38" cy="44" rx="1" ry="5" fill="#ECE311"/>
<ellipse cx="38" cy="44" rx="1" ry="5" fill="#ECE311"/>
</svg>
